<?xml version="1.0" encoding="utf-8"?>
<!-- Generator: Adobe Illustrator 20.1.0, SVG Export Plug-In . SVG Version: 6.00 Build 0)  -->
<svg version="1.1" id="Layer_1" xmlns="http://www.w3.org/2000/svg" xmlns:xlink="http://www.w3.org/1999/xlink" x="0px" y="0px"
	 viewBox="0 0 300 300" style="enable-background:new 0 0 300 300;" xml:space="preserve">
<style type="text/css">
	.st0{fill:url(#SVGID_1_);}
	.st1{fill:url(#SVGID_2_);}
</style>
<g>
	
		<image style="overflow:visible;opacity:0.7;" width="1109" height="1109" xlink:href="368093E6.png"  transform="matrix(0.24 0 0 0.24 20 20)">
	</image>
	<g>
		<g>
			<linearGradient id="SVGID_1_" gradientUnits="userSpaceOnUse" x1="77.7778" y1="150" x2="280" y2="150">
				<stop  offset="0" style="stop-color:#57A0D7"/>
				<stop  offset="0.1918" style="stop-color:#478FCC"/>
				<stop  offset="1" style="stop-color:#14499E"/>
			</linearGradient>
			<path class="st0" d="M265.6,20h-14.4h-14.4h-28.9c-7.9,0-14.4,6.5-14.4,14.4v72.2h-86.7V63.3H77.8v72.2h28.9h115.6v-28.9V48.9
				h14.4h14.4v202.2h-14.4h-72.2v-28.9h-28.9v43.3c0,7.9,6.5,14.4,14.4,14.4h86.7h14.4h14.4c7.9,0,14.4-6.5,14.4-14.4V34.4
				C280,26.5,273.5,20,265.6,20z"/>
			<linearGradient id="SVGID_2_" gradientUnits="userSpaceOnUse" x1="20" y1="150" x2="222.2222" y2="150">
				<stop  offset="0" style="stop-color:#57A0D7"/>
				<stop  offset="0.1918" style="stop-color:#478FCC"/>
				<stop  offset="1" style="stop-color:#14499E"/>
			</linearGradient>
			<path class="st1" d="M193.3,222.2h28.9v-28.9v-28.9H106.7H77.8v28.9v57.8H63.3H48.9V48.9h14.4h72.2v28.9h28.9V34.4
				c0-7.9-6.5-14.4-14.4-14.4H63.3H48.9H34.4C26.5,20,20,26.5,20,34.4v231.1c0,7.9,6.5,14.4,14.4,14.4h14.4h14.4h28.9
				c7.9,0,14.4-6.5,14.4-14.4v-72.2h86.7V222.2z"/>
		</g>
	</g>
</g>
</svg>
